<svg width="448" height="96" viewBox="0 0 448 96" fill="none" xmlns="http://www.w3.org/2000/svg">
<path d="M41.7469 0.144199C33.1974 0.958243 26.0184 3.62039 19.0569 8.57066C11.6822 13.8069 5.28634 22.2994 2.08843 31.1659C1.04422 34.048 1.00071 34.246 1.28352 34.246C1.41404 34.246 1.47931 34.158 1.39229 34.048C1.32702 33.938 1.37053 33.784 1.45755 33.718C1.56632 33.652 1.93615 32.86 2.26247 31.9359C3.17616 29.3838 3.11089 30.0878 2.15369 33.058C0.717898 37.5022 0.174036 40.6264 0.087018 44.9166L0 48.6568L0.326317 45.4667C0.696144 41.7045 1.30527 38.1843 2.06668 35.5221C2.65405 33.344 3.91581 29.7798 4.02458 29.8898C4.04634 29.9338 3.80704 30.8359 3.45896 31.8919C1.87089 36.6222 1.08772 40.8684 0.957198 45.3566L0.87018 48.4368L1.06597 45.6867C1.71861 36.6882 4.28564 28.9218 8.85408 22.1454C10.8337 19.2412 12.0085 17.8332 14.8366 15.127C18.8394 11.2768 21.9938 9.05469 26.5187 6.89857C30.7609 4.85246 33.8282 3.9064 39.0276 3.00435C41.5511 2.56433 42.3125 2.52033 45.989 2.63033C54.1904 2.91635 61.7175 5.22648 68.2874 9.53871C72.1597 12.0909 76.5758 16.0951 78.8165 19.1092C85.5604 28.1517 88.5625 37.1282 88.4103 47.8868C88.2362 59.6134 84.538 69.1839 76.5541 78.5124C75.14 80.1625 75.7274 79.7225 78.3814 77.1484C79.5344 76.0483 80.1653 75.5423 79.926 75.9383C78.0116 79.1505 73.6172 83.4187 69.0705 86.4549C66.0249 88.501 66.1337 88.413 66.7645 88.127C67.6782 87.6869 67.0474 88.193 65.394 89.183C63.2621 90.4811 63.7624 90.3711 66.3077 89.007C72.2032 85.8388 77.2067 81.5706 81.166 76.3563C82.6671 74.3762 84.8208 70.944 84.6902 70.724C84.625 70.636 84.6902 70.548 84.8208 70.548C84.9513 70.548 84.9948 70.46 84.9295 70.328C84.8643 70.196 84.9078 70.108 85.0166 70.108C85.1471 70.108 85.2559 69.976 85.2559 69.8C85.2559 69.646 85.691 68.5679 86.2131 67.4458C88.1927 63.2436 89.672 58.1833 90.3682 53.4091C90.7162 50.9229 90.8685 44.3886 90.5857 43.4865C90.4987 43.2445 90.5422 43.0465 90.6727 43.0465C90.9773 43.0465 90.9773 42.0125 90.6945 41.8365C90.564 41.7485 90.5422 41.5944 90.6292 41.4404C90.7162 41.3084 90.7597 40.8024 90.7597 40.2964L90.738 39.4163L90.9338 40.2964C91.2819 41.7925 91.4124 48.8988 91.1513 51.737C90.8033 55.3892 89.5197 61.6595 88.5843 64.1677C87.5401 67.0058 85.778 70.768 85.4952 70.768C85.3646 70.768 85.2776 70.834 85.2994 70.922C85.3864 71.274 84.9948 72.0881 84.799 71.9781C84.6902 71.9121 84.6685 72.0221 84.7555 72.2201C84.8643 72.5061 84.8208 72.5501 84.6032 72.4181C84.4292 72.3081 84.3639 72.3301 84.4509 72.4621C84.625 72.7481 82.4495 75.9823 80.6004 78.2044C78.9471 80.2065 75.9232 83.2207 73.9435 84.8488C67.4389 90.2391 58.4326 93.9573 49.4697 94.9473L47.5118 95.1673L49.4697 95.0573C51.6887 94.9473 54.5385 94.4853 57.062 93.8473C57.9975 93.6053 58.8242 93.4512 58.8894 93.5173C58.9547 93.6053 58.9329 93.6493 58.8677 93.6493C58.7806 93.6493 57.5624 93.9353 56.1483 94.2873C53.7989 94.9033 51.2971 95.3214 47.1855 95.8494C45.7497 96.0254 45.9237 96.0254 48.5995 95.9594C55.822 95.7834 64.067 93.0992 70.8109 88.699C79.8172 82.8247 86.6481 73.9802 89.9113 63.9257C90.8468 61.0435 91.3906 58.6894 90.912 59.6574C90.7162 60.0534 90.6945 60.0314 90.8033 59.5474C90.8685 59.2394 91.0208 58.3594 91.1731 57.5893C91.3689 56.5553 91.4776 56.2912 91.6082 56.5993C91.7169 56.8853 91.7605 56.7313 91.6952 56.2032C91.6517 55.7412 91.6952 55.4112 91.7822 55.4772C92.2391 55.7632 92.5654 47.7988 92.2391 44.0366C91.6299 37.1062 90.2159 31.7159 87.7141 26.6556C81.5794 14.247 69.9625 4.78645 56.801 1.46427C51.9062 0.232203 46.1195 -0.273824 41.7469 0.144199ZM51.6887 0.936242C51.6234 1.00225 51.4276 1.02425 51.2753 0.958243C51.1013 0.892239 51.1666 0.826236 51.4059 0.826236C51.6452 0.804234 51.7757 0.870238 51.6887 0.936242ZM52.9069 1.17825C52.7546 1.22226 52.4501 1.22226 52.2543 1.17825C52.0367 1.11225 52.1673 1.06825 52.5153 1.06825C52.8852 1.06825 53.0375 1.11225 52.9069 1.17825ZM55.4522 1.57428C57.1708 1.9923 60.9561 3.24637 60.8256 3.35637C60.7821 3.40037 60.3035 3.29037 59.7813 3.09236C59.2592 2.89435 57.5624 2.41032 55.9961 1.9923C53.168 1.26626 52.7764 0.958243 55.4522 1.57428ZM61.761 3.66439C61.935 3.7744 62.0003 3.8844 61.8698 3.8844C61.761 3.8844 61.5 3.7744 61.3259 3.66439C61.1519 3.55438 61.1084 3.44438 61.2171 3.44438C61.3477 3.44438 61.587 3.55438 61.761 3.66439ZM63.2838 4.32442C63.6972 4.56644 63.9582 4.74245 63.8277 4.74245C63.7189 4.74245 63.2621 4.56644 62.8487 4.32442C62.4354 4.08241 62.1961 3.9064 62.3049 3.9064C62.4354 3.9064 62.8705 4.08241 63.2838 4.32442ZM67.6347 6.65656C67.6347 6.70056 67.3519 6.61255 66.9821 6.41454C66.634 6.21653 66.3295 6.01852 66.3295 5.95252C66.3295 5.90852 66.634 5.99652 66.9821 6.19453C67.3519 6.39254 67.6347 6.59055 67.6347 6.65656ZM70.8979 8.68067C72.8776 10.0887 75.3576 12.2009 76.7716 13.6969C77.5548 14.533 77.2937 14.335 76.0755 13.1909C74.1176 11.2988 70.6586 8.61466 68.8965 7.55861C68.3091 7.22859 67.8523 6.89857 67.8523 6.83257C67.8523 6.67856 69.1575 7.4706 70.8979 8.68067ZM81.7969 19.4392C82.0797 19.7913 82.058 19.8133 81.7316 19.5273C81.5141 19.3732 81.3401 19.1972 81.3401 19.1532C81.3401 18.9772 81.5141 19.0872 81.7969 19.4392ZM84.0811 22.9374C84.7555 24.0815 85.7127 25.9516 86.2566 27.0737C87.2355 29.1638 88.7366 33.19 88.7148 33.652C88.7148 33.806 88.3232 32.838 87.8446 31.4959C86.8874 28.7898 85.1471 25.1376 83.5373 22.4094C82.9499 21.4194 82.5583 20.6493 82.6671 20.7373C82.7758 20.8033 83.4067 21.7934 84.0811 22.9374ZM4.3509 29.3398C4.08984 29.7798 4.04634 29.6478 4.24213 29.0758C4.32914 28.8778 4.43792 28.7678 4.48143 28.8338C4.54669 28.8778 4.48143 29.1198 4.3509 29.3398ZM89.1499 35.1261C89.1499 35.3241 89.0629 35.3021 88.9541 35.0161C88.8454 34.7741 88.7583 34.4221 88.7583 34.246C88.7583 34.048 88.8454 34.07 88.9541 34.3561C89.0629 34.5981 89.1499 34.9501 89.1499 35.1261ZM89.324 36.0501C89.2587 36.2262 89.1934 36.1602 89.1934 35.9181C89.1717 35.6761 89.2369 35.5441 89.3022 35.6321C89.3675 35.6981 89.3892 35.8961 89.324 36.0501ZM89.5415 37.1502C89.4762 37.3042 89.4327 37.1942 89.4327 36.8862C89.4327 36.5782 89.4762 36.4682 89.5415 36.6002C89.585 36.7542 89.585 37.0182 89.5415 37.1502ZM89.759 38.0303C89.6938 38.2063 89.6285 38.1403 89.6285 37.8982C89.6068 37.6562 89.672 37.5242 89.7373 37.6122C89.8026 37.6782 89.8243 37.8762 89.759 38.0303ZM90.6292 39.0203C90.564 39.2403 90.5204 39.1083 90.5204 38.7563C90.5204 38.3823 90.564 38.2283 90.6292 38.3603C90.6727 38.5143 90.6727 38.8223 90.6292 39.0203ZM89.9766 39.1303C89.9113 39.3063 89.8461 39.2403 89.8461 38.9983C89.8243 38.7563 89.8896 38.6243 89.9548 38.7123C90.0201 38.7783 90.0419 38.9763 89.9766 39.1303ZM90.6292 42.6505C90.564 42.8045 90.5204 42.6945 90.5204 42.3865C90.5204 42.0785 90.564 41.9685 90.6292 42.1005C90.6727 42.2545 90.6727 42.5185 90.6292 42.6505ZM90.564 60.9555C90.4987 61.2855 90.3899 61.5055 90.3247 61.4615C90.2811 61.3955 90.3029 61.0875 90.3899 60.7795C90.4552 60.4495 90.564 60.2295 90.6292 60.2735C90.6727 60.3395 90.651 60.6475 90.564 60.9555ZM86.2348 71.208C86.039 71.5601 85.8432 71.8681 85.778 71.8681C85.7345 71.8681 85.8215 71.5601 86.0173 71.208C86.2131 70.834 86.4088 70.548 86.4741 70.548C86.5176 70.548 86.4306 70.834 86.2348 71.208ZM85.4517 72.5721C84.799 73.8042 82.5148 77.0824 81.0355 78.8425C78.0986 82.4067 73.5737 86.4549 70.354 88.369C69.114 89.095 69.3533 88.897 72.4207 86.5869C77.0544 83.1107 81.253 78.6664 84.2334 74.1122C85.5169 72.1541 85.9738 71.5601 85.4517 72.5721ZM69.3751 88.919C69.3751 88.963 69.1575 89.117 68.8965 89.249C68.4179 89.491 68.4179 89.469 68.8095 89.161C69.2663 88.787 69.3751 88.743 69.3751 88.919Z" fill="url(#paint0_linear_30_72)"/>
<path d="M45.9454 15.4319C45.271 15.9159 44.1833 17.742 43.7047 19.1941C43.4654 19.9201 42.2036 26.4325 40.8766 33.6709C39.5496 40.9312 38.4401 46.8936 38.3966 46.9376C38.3748 46.9816 37.2219 47.1576 35.8513 47.3336C31.5004 47.9056 27.7804 48.8077 26.5404 49.5997C24.0821 51.1178 24.5172 52.1519 28.3678 53.89C29.5643 54.44 31.892 55.518 33.5453 56.3101C36.9826 57.9822 36.7215 57.4762 36.1994 61.4144C35.5033 66.8047 35.5685 71.5569 36.3082 71.6669C37.0696 71.7989 37.0696 71.7769 37.0913 68.5648C37.1131 65.7266 37.4612 62.7564 38.1791 59.2803L38.3096 58.6642L39.3103 59.2583C39.8759 59.5663 41.725 60.7543 43.4219 61.8764C48.7735 65.4626 52.2977 69.4448 53.6247 73.471C54.2121 75.2531 54.2121 75.2971 53.9728 77.9153C53.6247 81.5235 53.5812 81.3255 54.4297 81.3255C56.0395 81.3255 56.4746 79.7634 55.7567 76.7052C55.1911 74.3291 55.5391 71.6449 57.9539 59.4343C58.9546 54.352 59.8465 49.6657 59.9335 49.0277C60.1076 47.6856 59.9553 47.7296 63.436 48.1256C64.7848 48.2577 65.7637 48.2797 66.1118 48.1476C66.6122 47.9496 66.5687 47.9056 65.4809 47.5756C64.8283 47.3776 63.436 47.1136 62.37 46.9816C60.5427 46.7396 60.4557 46.6956 60.4557 46.1675C60.4557 45.2435 61.9567 36.927 63.436 29.6226C65.5244 19.2161 65.7202 18.16 65.5897 18.028C65.2851 17.72 64.4367 18.424 63.8929 19.4141C63.3055 20.4921 61.7174 28.0165 59.3679 40.7332C58.8676 43.3954 58.4107 45.8155 58.3455 46.1015L58.2149 46.6076L54.0598 46.4536C51.7103 46.3655 47.8816 46.4095 45.2493 46.5416C42.6822 46.6736 40.572 46.7616 40.5285 46.7396C40.4633 46.6516 43.3566 30.6347 44.4661 25.1124C44.9882 22.4502 45.7279 19.1941 46.1194 17.874C46.8156 15.4319 46.7721 14.8598 45.9454 15.4319ZM57.9756 47.7076C58.0191 47.7736 57.6276 50.4798 57.1055 53.7359C56.1483 59.6103 54.9735 67.4867 54.6472 70.4349L54.4732 71.9749L53.7553 70.6989C52.2325 68.0587 49.9482 65.4846 46.9679 63.0865C44.8577 61.3924 41.8338 59.3023 39.8977 58.2242C39.1798 57.8062 38.5706 57.4762 38.5271 57.4322C38.4619 57.4102 39.7454 50.4798 40.1152 48.8517C40.2022 48.4337 40.4633 48.3677 43.0956 48.1256C48.3819 47.6196 51.384 47.4876 54.6472 47.5536C56.4093 47.5756 57.9104 47.6636 57.9756 47.7076ZM38.0485 48.9177C38.0485 49.1597 36.8955 56.3321 36.8303 56.4201C36.8085 56.4641 35.6338 55.9581 34.2197 55.298C32.7839 54.66 30.5215 53.6479 29.1944 53.0539C27.8457 52.4819 26.7362 51.9319 26.7362 51.8218C26.7362 51.0518 29.3032 50.1938 34.2415 49.3357C37.6569 48.7417 38.0485 48.6977 38.0485 48.9177Z" fill="url(#paint1_linear_30_72)"/>
<path d="M91.3909 57.7892C91.3909 58.0972 91.4345 58.2072 91.4999 58.0532C91.5435 57.9212 91.5435 57.6572 91.4999 57.5032C91.4345 57.3712 91.3909 57.4812 91.3909 57.7892Z" fill="url(#paint2_linear_30_72)"/>
<path d="M91.1512 58.8003C91.1512 59.0423 91.2162 59.1083 91.2812 58.9323C91.3461 58.7783 91.3245 58.5803 91.2595 58.5143C91.1945 58.4263 91.1296 58.5583 91.1512 58.8003Z" fill="url(#paint3_linear_30_72)"/>
<path d="M5.30808 71.5349C6.24352 73.251 8.09265 76.0232 9.33266 77.5853C11.7039 80.5994 16.6204 85.2417 19.3397 87.0238L20.1011 87.5078L19.4703 87.0018C12.8569 81.7215 9.89828 78.5313 6.41756 72.965C4.82948 70.4569 4.35088 69.8409 5.30808 71.5349Z" fill="url(#paint4_linear_30_72)"/>
<path d="M74.3783 80.1614L73.1818 81.4375L74.4435 80.2274C75.5965 79.1274 75.7923 78.9074 75.6183 78.9074C75.5965 78.9074 75.0309 79.4794 74.3783 80.1614Z" fill="url(#paint5_linear_30_72)"/>
<path d="M30.6524 92.9853C30.8264 93.0953 31.131 93.1833 31.305 93.1833C31.5226 93.1833 31.479 93.1173 31.1962 92.9853C30.6089 92.7213 30.2608 92.7213 30.6524 92.9853Z" fill="url(#paint6_linear_30_72)"/>
<path d="M33.8716 94.0253C34.0239 94.0913 34.2197 94.0693 34.285 94.0033C34.372 93.9373 34.2415 93.8713 34.0022 93.8933C33.7629 93.8933 33.6976 93.9593 33.8716 94.0253Z" fill="url(#paint7_linear_30_72)"/>
<path d="M52.3632 94.0253C52.5155 94.0913 52.7113 94.0693 52.7766 94.0033C52.8636 93.9373 52.733 93.8713 52.4937 93.8933C52.2544 93.8933 52.1892 93.9593 52.3632 94.0253Z" fill="url(#paint8_linear_30_72)"/>
<path d="M50.6225 94.2451C50.7531 94.2891 51.0141 94.2891 51.1664 94.2451C51.2969 94.1791 51.1882 94.1351 50.8836 94.1351C50.579 94.1351 50.4703 94.1791 50.6225 94.2451Z" fill="url(#paint9_linear_30_72)"/>
<path d="M48.4472 94.4646C48.7083 94.5086 49.0999 94.5086 49.3174 94.4646C49.5132 94.3986 49.2957 94.3546 48.8171 94.3766C48.3385 94.3766 48.1644 94.4206 48.4472 94.4646Z" fill="url(#paint10_linear_30_72)"/>
<path d="M111.867 62.6838V33.5929H117.137V45.9083H130.617V33.5929H135.901V62.6838H130.617V50.3259H117.137V62.6838H111.867ZM173.227 48.1384C173.227 51.2729 172.64 53.9575 171.466 56.1924C170.301 58.4177 168.71 60.1223 166.693 61.306C164.686 62.4897 162.408 63.0816 159.861 63.0816C157.313 63.0816 155.031 62.4897 153.014 61.306C151.007 60.1128 149.416 58.4035 148.241 56.1782C147.077 53.9433 146.494 51.2634 146.494 48.1384C146.494 45.0039 147.077 42.324 148.241 40.0986C149.416 37.8638 151.007 36.1545 153.014 34.9708C155.031 33.7871 157.313 33.1952 159.861 33.1952C162.408 33.1952 164.686 33.7871 166.693 34.9708C168.71 36.1545 170.301 37.8638 171.466 40.0986C172.64 42.324 173.227 45.0039 173.227 48.1384ZM167.929 48.1384C167.929 45.9319 167.583 44.0711 166.892 42.556C166.21 41.0314 165.263 39.8808 164.051 39.1043C162.839 38.3183 161.442 37.9253 159.861 37.9253C158.279 37.9253 156.882 38.3183 155.67 39.1043C154.458 39.8808 153.507 41.0314 152.815 42.556C152.133 44.0711 151.793 45.9319 151.793 48.1384C151.793 50.3448 152.133 52.2104 152.815 53.735C153.507 55.2501 154.458 56.4007 155.67 57.1867C156.882 57.9632 158.279 58.3515 159.861 58.3515C161.442 58.3515 162.839 57.9632 164.051 57.1867C165.263 56.4007 166.21 55.2501 166.892 53.735C167.583 52.2104 167.929 50.3448 167.929 48.1384ZM183.809 62.6838V33.5929H194.719C196.953 33.5929 198.828 33.9812 200.344 34.7577C201.868 35.5342 203.019 36.6232 203.795 38.0247C204.581 39.4168 204.974 41.0408 204.974 42.8969C204.974 44.7624 204.576 46.3818 203.781 47.7549C202.995 49.1185 201.835 50.1744 200.301 50.9225C198.767 51.6611 196.882 52.0304 194.647 52.0304H186.878V47.6554H193.937C195.244 47.6554 196.314 47.4755 197.147 47.1157C197.981 46.7463 198.596 46.2113 198.994 45.5105C199.401 44.8003 199.605 43.9291 199.605 42.8969C199.605 41.8647 199.401 40.984 198.994 40.2549C198.587 39.5162 197.967 38.9575 197.133 38.5787C196.3 38.1905 195.225 37.9963 193.909 37.9963H189.079V62.6838H183.809ZM198.838 49.502L206.04 62.6838H200.159L193.085 49.502H198.838ZM220.695 33.5929V62.6838H215.425V33.5929H220.695ZM231.462 62.6838V59.4026L246.377 38.0105H231.377V33.5929H252.911V36.8742L238.01 58.2662H252.996V62.6838H231.462ZM288.322 48.1384C288.322 51.2729 287.735 53.9575 286.561 56.1924C285.396 58.4177 283.805 60.1223 281.788 61.306C279.781 62.4897 277.503 63.0816 274.956 63.0816C272.409 63.0816 270.126 62.4897 268.109 61.306C266.102 60.1128 264.511 58.4035 263.337 56.1782C262.172 53.9433 261.59 51.2634 261.59 48.1384C261.59 45.0039 262.172 42.324 263.337 40.0986C264.511 37.8638 266.102 36.1545 268.109 34.9708C270.126 33.7871 272.409 33.1952 274.956 33.1952C277.503 33.1952 279.781 33.7871 281.788 34.9708C283.805 36.1545 285.396 37.8638 286.561 40.0986C287.735 42.324 288.322 45.0039 288.322 48.1384ZM283.024 48.1384C283.024 45.9319 282.679 44.0711 281.987 42.556C281.305 41.0314 280.358 39.8808 279.146 39.1043C277.934 38.3183 276.537 37.9253 274.956 37.9253C273.375 37.9253 271.978 38.3183 270.766 39.1043C269.554 39.8808 268.602 41.0314 267.911 42.556C267.229 44.0711 266.888 45.9319 266.888 48.1384C266.888 50.3448 267.229 52.2104 267.911 53.735C268.602 55.2501 269.554 56.4007 270.766 57.1867C271.978 57.9632 273.375 58.3515 274.956 58.3515C276.537 58.3515 277.934 57.9632 279.146 57.1867C280.358 56.4007 281.305 55.2501 281.987 53.735C282.679 52.2104 283.024 50.3448 283.024 48.1384ZM322.811 33.5929V62.6838H318.124L304.416 42.8685H304.175V62.6838H298.905V33.5929H303.621L317.314 53.4225H317.57V33.5929H322.811ZM349.675 62.6838V33.5929H354.945V45.9083H368.425V33.5929H373.709V62.6838H368.425V50.3259H354.945V62.6838H349.675ZM403.379 33.5929H408.649V52.5986C408.649 54.6819 408.156 56.5143 407.171 58.0958C406.196 59.6772 404.823 60.913 403.052 61.8032C401.281 62.6838 399.212 63.1242 396.845 63.1242C394.468 63.1242 392.394 62.6838 390.623 61.8032C388.852 60.913 387.479 59.6772 386.504 58.0958C385.528 56.5143 385.041 54.6819 385.041 52.5986V33.5929H390.311V52.1583C390.311 53.3704 390.576 54.4499 391.106 55.3969C391.646 56.3439 392.403 57.0872 393.379 57.627C394.354 58.1573 395.509 58.4225 396.845 58.4225C398.18 58.4225 399.335 58.1573 400.311 57.627C401.295 57.0872 402.053 56.3439 402.583 55.3969C403.114 54.4499 403.379 53.3704 403.379 52.1583V33.5929ZM419.977 62.6838V33.5929H431.113C433.215 33.5929 434.962 33.9244 436.354 34.5872C437.756 35.2407 438.802 36.1355 439.494 37.2719C440.194 38.4083 440.545 39.6961 440.545 41.1355C440.545 42.3193 440.318 43.3325 439.863 44.1753C439.408 45.0086 438.798 45.6857 438.031 46.2066C437.264 46.7274 436.407 47.1015 435.46 47.3287V47.6128C436.492 47.6696 437.481 47.9869 438.428 48.5645C439.385 49.1327 440.166 49.9376 440.772 50.9793C441.378 52.021 441.681 53.2804 441.681 54.7577C441.681 56.2634 441.317 57.6175 440.587 58.8202C439.858 60.0134 438.76 60.9556 437.292 61.6469C435.824 62.3382 433.978 62.6838 431.752 62.6838H419.977ZM425.247 58.2804H430.914C432.827 58.2804 434.205 57.9158 435.048 57.1867C435.9 56.448 436.326 55.5011 436.326 54.3458C436.326 53.484 436.113 52.7075 435.687 52.0162C435.261 51.3155 434.655 50.7662 433.869 50.3685C433.083 49.9613 432.145 49.7577 431.056 49.7577H425.247V58.2804ZM425.247 45.9651H430.46C431.369 45.9651 432.188 45.7994 432.917 45.4679C433.646 45.127 434.219 44.6488 434.636 44.0333C435.062 43.4083 435.275 42.6696 435.275 41.8174C435.275 40.6905 434.877 39.7624 434.082 39.0333C433.296 38.3041 432.126 37.9395 430.573 37.9395H425.247V45.9651Z" fill="url(#paint11_linear_30_72)"/>
<defs>
<linearGradient id="paint0_linear_30_72" x1="46.1856" y1="96" x2="46.1856" y2="0" gradientUnits="userSpaceOnUse">
<stop stop-color="#8C7500"/>
<stop offset="0.208333" stop-color="#F7D93E"/>
<stop offset="0.484375" stop-color="#948220"/>
<stop offset="0.723958" stop-color="#B09E43"/>
<stop offset="1" stop-color="#FFD600"/>
</linearGradient>
<linearGradient id="paint1_linear_30_72" x1="45.7156" y1="81.3274" x2="45.7156" y2="15.2275" gradientUnits="userSpaceOnUse">
<stop stop-color="#8C7500"/>
<stop offset="0.208333" stop-color="#F7D93E"/>
<stop offset="0.484375" stop-color="#948220"/>
<stop offset="0.723958" stop-color="#B09E43"/>
<stop offset="1" stop-color="#FFD600"/>
</linearGradient>
<linearGradient id="paint2_linear_30_72" x1="91.4617" y1="58.1223" x2="91.4617" y2="57.4482" gradientUnits="userSpaceOnUse">
<stop stop-color="#8C7500"/>
<stop offset="0.208333" stop-color="#F7D93E"/>
<stop offset="0.484375" stop-color="#948220"/>
<stop offset="0.723958" stop-color="#B09E43"/>
<stop offset="1" stop-color="#FFD600"/>
</linearGradient>
<linearGradient id="paint3_linear_30_72" x1="91.2337" y1="59.0317" x2="91.2337" y2="58.4869" gradientUnits="userSpaceOnUse">
<stop stop-color="#8C7500"/>
<stop offset="0.208333" stop-color="#F7D93E"/>
<stop offset="0.484375" stop-color="#948220"/>
<stop offset="0.723958" stop-color="#B09E43"/>
<stop offset="1" stop-color="#FFD600"/>
</linearGradient>
<linearGradient id="paint4_linear_30_72" x1="12.4589" y1="87.5078" x2="12.4589" y2="70.5815" gradientUnits="userSpaceOnUse">
<stop stop-color="#8C7500"/>
<stop offset="0.208333" stop-color="#F7D93E"/>
<stop offset="0.484375" stop-color="#948220"/>
<stop offset="0.723958" stop-color="#B09E43"/>
<stop offset="1" stop-color="#FFD600"/>
</linearGradient>
<linearGradient id="paint5_linear_30_72" x1="74.4277" y1="81.4375" x2="74.4277" y2="78.9074" gradientUnits="userSpaceOnUse">
<stop stop-color="#8C7500"/>
<stop offset="0.208333" stop-color="#F7D93E"/>
<stop offset="0.484375" stop-color="#948220"/>
<stop offset="0.723958" stop-color="#B09E43"/>
<stop offset="1" stop-color="#FFD600"/>
</linearGradient>
<linearGradient id="paint6_linear_30_72" x1="30.9643" y1="93.1833" x2="30.9643" y2="92.7873" gradientUnits="userSpaceOnUse">
<stop stop-color="#8C7500"/>
<stop offset="0.208333" stop-color="#F7D93E"/>
<stop offset="0.484375" stop-color="#948220"/>
<stop offset="0.723958" stop-color="#B09E43"/>
<stop offset="1" stop-color="#FFD600"/>
</linearGradient>
<linearGradient id="paint7_linear_30_72" x1="34.0427" y1="94.0652" x2="34.0427" y2="93.889" gradientUnits="userSpaceOnUse">
<stop stop-color="#8C7500"/>
<stop offset="0.208333" stop-color="#F7D93E"/>
<stop offset="0.484375" stop-color="#948220"/>
<stop offset="0.723958" stop-color="#B09E43"/>
<stop offset="1" stop-color="#FFD600"/>
</linearGradient>
<linearGradient id="paint8_linear_30_72" x1="52.5342" y1="94.0652" x2="52.5342" y2="93.889" gradientUnits="userSpaceOnUse">
<stop stop-color="#8C7500"/>
<stop offset="0.208333" stop-color="#F7D93E"/>
<stop offset="0.484375" stop-color="#948220"/>
<stop offset="0.723958" stop-color="#B09E43"/>
<stop offset="1" stop-color="#FFD600"/>
</linearGradient>
<linearGradient id="paint9_linear_30_72" x1="50.8875" y1="94.2781" x2="50.8875" y2="94.1351" gradientUnits="userSpaceOnUse">
<stop stop-color="#8C7500"/>
<stop offset="0.208333" stop-color="#F7D93E"/>
<stop offset="0.484375" stop-color="#948220"/>
<stop offset="0.723958" stop-color="#B09E43"/>
<stop offset="1" stop-color="#FFD600"/>
</linearGradient>
<linearGradient id="paint10_linear_30_72" x1="48.8501" y1="94.4976" x2="48.8501" y2="94.3708" gradientUnits="userSpaceOnUse">
<stop stop-color="#8C7500"/>
<stop offset="0.208333" stop-color="#F7D93E"/>
<stop offset="0.484375" stop-color="#948220"/>
<stop offset="0.723958" stop-color="#B09E43"/>
<stop offset="1" stop-color="#FFD600"/>
</linearGradient>
<linearGradient id="paint11_linear_30_72" x1="122.977" y1="47.6436" x2="427.031" y2="47.6436" gradientUnits="userSpaceOnUse">
<stop offset="0.0473195" stop-color="#FED600"/>
<stop offset="0.260417" stop-color="#CAAB07"/>
<stop offset="0.53125" stop-color="#CAAA00"/>
<stop offset="0.744792" stop-color="#E6C826"/>
<stop offset="1" stop-color="#FEE55E"/>
</linearGradient>
</defs>
</svg>
